<svg xmlns="http://www.w3.org/2000/svg" width="106" height="106" viewBox="0 0 106 106"><defs><style>.a{fill:#fff;}.b{fill:none;}</style></defs><path class="a" d="M36.246,49.7a6.115,6.115,0,1,0,6.115,6.115A6.118,6.118,0,0,0,36.246,49.7Zm29.354,0a6.115,6.115,0,1,0,6.115,6.115A6.118,6.118,0,0,0,65.6,49.7ZM50.923,2A48.923,48.923,0,1,0,99.846,50.923,48.941,48.941,0,0,0,50.923,2Zm0,88.062A39.19,39.19,0,0,1,11.785,50.923a39.665,39.665,0,0,1,.245-4.207A49.225,49.225,0,0,0,37.518,20.444,48.8,48.8,0,0,0,77.439,41.138a47.751,47.751,0,0,0,11.008-1.272,39.079,39.079,0,0,1-37.524,50.2Z" transform="translate(2.077 2.077)"/><path class="b" d="M0,0H106V106H0Z"/></svg>